<?xml version="1.0" standalone="no"?>
<!DOCTYPE svg PUBLIC "-//W3C//DTD SVG 20010904//EN"
 "http://www.w3.org/TR/2001/REC-SVG-20010904/DTD/svg10.dtd">
<svg version="1.0" xmlns="http://www.w3.org/2000/svg"
 width="796.000000pt" height="458.000000pt" viewBox="0 0 796.000000 458.000000"
 preserveAspectRatio="xMidYMid meet">

<g transform="translate(0.000000,458.000000) scale(0.100000,-0.100000)"
fill="#000000" stroke="none">
<path d="M1222 4498 c3 -20 11 -24 63 -29 72 -7 109 -25 159 -76 48 -50 72
-103 155 -340 38 -109 113 -322 166 -473 53 -151 116 -331 140 -400 41 -118
107 -306 331 -942 53 -150 112 -320 131 -378 l35 -105 -115 -325 c-63 -179
-170 -482 -237 -675 -68 -192 -126 -353 -129 -357 -4 -4 -23 41 -43 100 -20
59 -257 738 -528 1510 -270 772 -496 1427 -502 1456 -21 99 35 163 152 173 50
5 60 9 60 24 0 11 -9 21 -22 24 -13 3 -241 4 -508 3 -485 -3 -485 -3 -488 -24
-3 -19 3 -22 56 -26 71 -7 128 -35 170 -83 58 -66 48 -39 372 -965 37 -107
177 -505 310 -885 274 -782 352 -1003 442 -1262 l63 -183 256 0 257 0 14 38
c8 20 116 326 239 679 123 352 226 639 229 636 3 -2 46 -120 96 -261 l91 -257
255 -3 255 -2 56 157 c31 87 130 372 222 633 91 261 199 570 240 685 41 116
194 552 340 970 299 856 295 846 403 902 44 23 78 33 108 33 40 0 44 2 44 25
l0 25 -414 0 c-425 0 -432 -1 -419 -37 3 -8 24 -13 58 -13 119 0 188 -50 234
-170 48 -124 64 -198 56 -263 -4 -39 -167 -515 -485 -1420 -263 -749 -482
-1370 -486 -1381 -5 -12 -38 71 -109 275 -56 162 -144 413 -195 559 -51 146
-93 273 -92 282 1 27 372 1078 398 1129 44 88 154 159 246 159 23 0 28 4 28
25 l0 25 -414 0 c-337 0 -415 -2 -419 -13 -9 -25 7 -34 69 -39 79 -7 144 -37
178 -81 15 -19 43 -81 63 -138 31 -87 37 -117 37 -184 -1 -76 -7 -97 -113
-399 -101 -288 -130 -364 -131 -345 0 6 -246 710 -467 1339 -151 431 -164 473
-160 518 5 43 32 83 70 104 10 5 46 12 80 16 54 6 62 10 65 30 l3 22 -511 0
-511 0 3 -22z"/>
<path d="M3990 2420 l0 -80 415 0 415 0 0 -178 0 -178 -60 59 c-37 36 -87 71
-128 90 -63 30 -74 32 -177 32 -98 0 -116 -3 -165 -26 -173 -81 -229 -225
-150 -385 46 -94 142 -188 246 -240 77 -38 82 -39 184 -39 114 0 162 16 223
73 l27 26 0 -80 c0 -104 25 -158 114 -246 85 -84 193 -158 309 -212 153 -72
264 -86 327 -43 19 12 35 27 37 32 2 10 -118 95 -135 95 -5 0 -17 -9 -27 -20
-58 -65 -198 -31 -352 84 -111 84 -103 35 -103 632 l0 519 -83 83 -82 82 -418
0 -417 0 0 -80z m685 -398 c90 -45 145 -115 145 -184 0 -43 -5 -52 -54 -106
-89 -95 -233 -154 -339 -138 -56 9 -131 55 -157 98 -25 42 -26 110 -1 165 64
140 281 228 406 165z"/>
<path d="M4980 2443 c112 -116 60 -103 396 -103 l294 0 30 -32 c43 -47 100
-168 107 -227 7 -62 -15 -128 -59 -171 l-30 -30 -29 59 c-37 74 -124 156 -181
171 -74 20 -154 -8 -201 -72 -47 -64 -7 -200 113 -380 210 -316 519 -602 683
-633 50 -10 128 11 167 43 l32 27 -66 53 -66 53 -40 -32 c-35 -28 -44 -31 -82
-25 -24 4 -68 20 -98 37 -72 41 -254 226 -354 359 l-79 105 74 7 c104 9 178
40 243 98 l53 49 68 -33 c77 -39 177 -60 241 -50 l44 6 0 78 0 78 -67 -24
c-80 -28 -156 -31 -214 -8 -35 15 -40 20 -35 40 25 98 11 190 -45 299 -35 67
-69 112 -178 233 l-74 82 -351 0 -350 0 54 -57z m600 -488 c30 -15 80 -79 80
-102 0 -18 -98 -46 -165 -47 -58 -1 -60 0 -79 35 -25 45 -16 81 26 108 39 24
97 27 138 6z"/>
<path d="M5792 2420 l73 -79 598 -1 597 0 0 -230 c0 -126 -4 -230 -8 -230 -4
0 -24 16 -43 36 -114 119 -332 224 -466 224 -102 0 -321 -76 -309 -107 3 -8
26 -43 51 -78 l46 -64 54 34 c156 100 309 116 442 47 71 -37 173 -112 173
-128 0 -14 -93 -89 -202 -162 -82 -55 -249 -145 -335 -180 -29 -11 -53 -25
-53 -29 1 -4 27 -37 60 -72 l59 -64 53 22 c117 50 307 174 408 267 32 30 60
54 64 54 3 0 6 -64 6 -142 0 -161 9 -190 74 -265 58 -66 191 -160 311 -219
177 -86 298 -107 365 -61 19 12 35 27 37 32 2 6 -29 30 -67 54 l-71 43 -24
-22 c-34 -32 -82 -39 -145 -23 -103 26 -251 122 -291 187 -18 29 -19 59 -19
551 l0 520 -83 83 -82 82 -673 0 -674 0 74 -80z"/>
<path d="M7244 2420 l82 -80 72 0 72 0 0 80 0 80 -154 0 -154 0 82 -80z"/>
<path d="M3931 1196 c-22 -26 -104 -65 -153 -72 -70 -9 -75 -13 -37 -32 64
-32 64 -30 64 -512 0 -405 -1 -438 -18 -464 -10 -15 -32 -33 -48 -40 -16 -7
-27 -15 -24 -18 3 -3 106 -3 229 -1 247 4 275 9 361 68 88 60 168 189 194 313
23 112 10 247 -32 328 -21 39 -86 100 -120 113 -16 6 -59 11 -96 11 -87 0
-170 -40 -247 -117 l-54 -55 -2 248 c-3 216 -5 245 -17 230z m370 -413 c46
-49 60 -92 66 -203 6 -106 -14 -208 -60 -305 -61 -128 -132 -185 -233 -188
-109 -2 -124 43 -124 363 l0 219 55 59 c74 80 122 104 199 99 54 -3 62 -7 97
-44z"/>
<path d="M3435 1087 c-17 -14 -28 -36 -32 -63 -4 -33 -1 -45 21 -71 65 -77
176 -35 176 67 0 76 -105 119 -165 67z"/>
<path d="M2460 890 c0 -4 13 -10 30 -13 18 -4 37 -18 47 -35 10 -16 76 -195
147 -398 71 -203 134 -375 141 -382 8 -9 26 -11 62 -6 45 6 51 9 61 38 5 17
65 189 132 381 124 355 147 405 192 405 10 0 18 4 18 10 0 5 -52 9 -125 9 -69
-1 -125 -5 -125 -9 0 -5 12 -10 27 -12 35 -4 64 -46 70 -99 4 -37 -12 -90 -95
-327 -54 -156 -102 -284 -107 -285 -7 -2 -85 213 -192 531 -50 151 -51 173 -4
180 11 2 21 8 21 13 0 5 -63 9 -150 8 -82 0 -150 -4 -150 -9z"/>
<path d="M5825 890 c-124 -14 -237 -75 -277 -150 -21 -41 -24 -110 -4 -148 39
-74 113 -111 326 -162 152 -37 219 -66 248 -108 33 -45 36 -75 14 -125 -31
-71 -116 -109 -239 -109 -128 1 -253 92 -324 237 l-39 80 0 -112 0 -112 43
-29 c94 -63 196 -92 323 -92 212 0 334 89 334 245 0 98 -58 174 -162 213 -29
11 -107 32 -173 47 -153 35 -221 66 -242 110 -19 40 -12 72 24 116 42 49 101
71 197 72 119 1 188 -33 257 -126 30 -42 32 -41 59 37 l19 55 -57 21 c-95 36
-225 52 -327 40z"/>
<path d="M3550 875 c-23 -28 -131 -75 -172 -75 -42 0 -49 -10 -16 -25 12 -6
31 -23 42 -38 20 -27 21 -41 21 -311 0 -255 -2 -285 -18 -309 -10 -16 -29 -33
-43 -39 -13 -6 -24 -14 -24 -18 0 -4 73 -5 163 -3 89 1 164 3 167 3 3 0 -11 8
-30 18 -64 31 -64 37 -70 446 -4 330 -7 367 -20 351z"/>
<path d="M4923 876 c-65 -21 -124 -60 -175 -114 -197 -210 -138 -532 121 -660
73 -36 78 -37 186 -37 101 0 114 2 166 29 107 53 206 165 224 251 5 22 -2 15
-26 -28 -92 -165 -279 -241 -427 -172 -122 57 -232 228 -232 362 l0 43 316 0
317 0 -6 51 c-9 71 -42 135 -102 194 -73 74 -111 89 -225 92 -59 2 -111 -3
-137 -11z m179 -53 c28 -15 66 -47 84 -72 31 -39 64 -122 64 -158 0 -10 -49
-13 -245 -13 l-245 0 0 23 c0 80 63 192 127 226 59 31 152 28 215 -6z"/>
</g>
</svg>
