<?xml version="1.0" standalone="no"?>
<!DOCTYPE svg PUBLIC "-//W3C//DTD SVG 20010904//EN"
 "http://www.w3.org/TR/2001/REC-SVG-20010904/DTD/svg10.dtd">
<svg version="1.0" xmlns="http://www.w3.org/2000/svg"
 width="998.000000pt" height="563.000000pt" viewBox="0 0 998.000000 563.000000"
 preserveAspectRatio="xMidYMid meet">

<g transform="translate(0.000000,563.000000) scale(0.100000,-0.100000)"
fill="#000000" stroke="none">
<path d="M1692 5398 c3 -20 11 -24 63 -29 72 -7 109 -25 159 -76 48 -50 74
-106 156 -342 80 -228 170 -486 305 -871 53 -151 127 -363 165 -470 37 -107
112 -319 165 -470 53 -151 113 -321 132 -378 l35 -102 -30 -88 c-17 -48 -85
-242 -152 -432 -67 -190 -158 -448 -202 -575 -44 -126 -85 -241 -90 -255 -9
-23 -13 -15 -45 75 -19 55 -253 723 -520 1485 -267 762 -494 1416 -505 1454
-13 45 -18 80 -13 104 12 67 84 112 178 112 34 0 38 3 35 23 l-3 22 -505 0
-505 0 -3 -21 c-3 -19 3 -22 56 -26 102 -10 174 -62 226 -166 13 -26 63 -159
111 -297 137 -392 259 -740 445 -1270 95 -269 203 -578 240 -685 38 -107 112
-319 165 -470 53 -151 113 -323 133 -383 l36 -107 257 0 257 0 14 38 c8 20
116 326 239 679 123 352 226 639 229 636 3 -2 46 -120 96 -261 l90 -257 256
-3 255 -2 56 157 c31 87 144 410 252 718 107 308 216 616 240 685 24 69 73
208 109 310 355 1019 471 1341 498 1383 48 76 137 127 219 127 35 0 39 3 39
25 l0 25 -414 0 c-401 0 -414 -1 -419 -19 -7 -28 -1 -31 58 -31 99 0 175 -43
215 -121 11 -20 33 -83 50 -140 27 -87 31 -114 25 -167 -4 -47 -126 -405 -486
-1429 -264 -752 -484 -1374 -489 -1382 -6 -10 -9 -12 -10 -3 0 7 -85 257 -190
555 -104 299 -190 555 -190 570 0 15 7 44 15 64 8 21 91 259 186 528 94 270
182 511 195 536 44 88 154 159 246 159 23 0 28 4 28 25 l0 25 -414 0 c-369 0
-415 -2 -420 -16 -10 -26 0 -31 67 -36 81 -7 147 -36 181 -81 15 -19 43 -81
63 -138 31 -87 37 -117 37 -184 -1 -76 -7 -97 -113 -399 -61 -176 -115 -326
-120 -334 -5 -9 -31 52 -75 180 -156 445 -410 1168 -482 1373 -90 253 -99 312
-54 360 36 38 57 48 125 54 53 5 60 9 63 29 l3 22 -511 0 -511 0 3 -22z"/>
<path d="M4458 3328 c-2 -40 -2 -76 0 -80 2 -5 190 -8 418 -8 l414 0 0 -178 0
-178 -60 59 c-37 36 -87 71 -128 90 -63 30 -74 32 -177 32 -98 0 -116 -3 -165
-26 -173 -81 -229 -225 -150 -385 47 -95 141 -188 245 -239 72 -35 89 -40 172
-43 82 -4 97 -2 150 22 32 15 70 39 86 53 l27 27 0 -80 c0 -102 25 -158 110
-243 206 -205 527 -335 640 -258 19 12 35 27 37 32 2 8 -99 82 -129 94 -5 2
-20 -7 -33 -19 -65 -61 -186 -34 -342 77 -35 24 -74 61 -88 81 l-25 37 0 520
0 520 -83 83 -82 82 -417 0 -416 0 -4 -72z m687 -406 c91 -46 145 -115 145
-186 0 -45 -3 -51 -62 -110 -132 -132 -304 -170 -422 -96 -59 38 -86 82 -86
140 1 177 264 333 425 252z"/>
<path d="M5472 3321 l73 -80 298 0 297 -1 30 -32 c43 -48 100 -168 107 -227 7
-62 -15 -128 -59 -172 l-30 -30 -23 50 c-43 91 -133 172 -206 186 -77 14 -180
-42 -197 -108 -20 -76 25 -195 133 -357 209 -312 515 -595 678 -625 50 -10
128 11 167 43 l32 27 -66 53 -66 53 -40 -32 c-35 -28 -44 -31 -82 -25 -24 4
-68 21 -98 38 -73 41 -256 226 -355 358 l-78 105 74 7 c105 9 183 41 245 99
l51 49 67 -34 c78 -39 178 -60 242 -50 l44 6 0 79 0 79 -52 -21 c-76 -30 -167
-36 -224 -14 -40 15 -45 20 -40 41 25 98 11 190 -45 299 -35 67 -69 112 -178
233 l-74 82 -350 0 -349 0 74 -79z m578 -466 c30 -15 80 -79 80 -102 0 -18
-98 -46 -165 -47 -58 -1 -60 0 -79 35 -25 45 -16 81 26 108 39 24 97 27 138 6z"/>
<path d="M6262 3320 l73 -79 598 -1 597 0 0 -230 c0 -126 -4 -230 -8 -230 -4
0 -24 16 -43 36 -114 119 -332 224 -466 224 -85 0 -313 -72 -313 -99 0 -4 23
-40 50 -80 l51 -71 45 31 c102 70 254 109 348 89 28 -6 75 -23 103 -38 69 -36
173 -112 173 -127 0 -14 -99 -95 -205 -165 -83 -56 -243 -141 -332 -178 -29
-11 -53 -25 -53 -29 1 -4 27 -37 60 -72 l59 -64 53 22 c117 50 307 174 408
267 32 30 60 54 64 54 3 0 6 -64 6 -142 0 -161 9 -190 74 -265 58 -66 191
-160 311 -219 177 -86 298 -107 365 -61 19 12 35 27 37 32 2 6 -29 30 -67 54
l-71 43 -23 -21 c-37 -35 -79 -42 -144 -25 -105 28 -253 122 -293 188 -18 29
-19 59 -19 551 l0 520 -83 83 -82 82 -673 0 -674 0 74 -80z"/>
<path d="M7714 3320 l82 -80 72 0 72 0 0 80 0 80 -154 0 -154 0 82 -80z"/>
<path d="M4400 2095 c-23 -28 -131 -75 -171 -75 -49 0 -55 -10 -16 -29 62 -31
62 -31 62 -511 0 -405 -1 -438 -18 -464 -10 -15 -32 -33 -48 -40 -16 -7 -27
-15 -24 -18 3 -2 107 -3 231 -1 248 5 274 10 359 68 88 60 168 189 194 313 23
112 10 247 -32 328 -22 42 -77 95 -114 110 -40 17 -148 18 -194 2 -49 -16
-144 -85 -176 -127 l-28 -36 -5 249 c-4 223 -7 247 -20 231z m371 -412 c46
-49 60 -92 66 -203 6 -106 -14 -208 -60 -305 -62 -130 -133 -186 -234 -187
-108 -1 -123 42 -123 362 l0 219 55 59 c74 80 122 104 199 99 54 -3 62 -7 97
-44z"/>
<path d="M3905 1987 c-17 -14 -28 -36 -32 -63 -4 -33 -1 -45 21 -71 65 -77
176 -35 176 67 0 76 -105 119 -165 67z"/>
<path d="M2930 1790 c0 -4 13 -10 30 -13 16 -4 36 -17 45 -31 9 -13 75 -192
147 -397 72 -206 137 -380 143 -388 9 -9 26 -11 62 -6 l49 6 134 386 c136 390
156 433 201 433 11 0 19 5 19 10 0 6 -48 10 -125 10 -71 0 -125 -4 -125 -9 0
-5 12 -11 27 -13 35 -4 64 -46 70 -99 4 -37 -12 -90 -95 -327 -54 -156 -103
-283 -107 -283 -5 0 -26 51 -48 113 -21 62 -72 208 -113 324 -41 115 -74 219
-74 230 0 25 18 44 42 44 10 0 18 5 18 10 0 6 -55 10 -150 9 -82 0 -150 -4
-150 -9z"/>
<path d="M6300 1790 c-89 -9 -156 -33 -214 -78 -59 -45 -86 -92 -86 -150 0
-116 78 -169 340 -232 153 -37 219 -66 249 -109 32 -45 36 -82 12 -129 -34
-67 -119 -104 -237 -104 -127 -1 -254 92 -324 237 l-39 80 -1 -112 c0 -127 -3
-121 106 -176 161 -81 409 -75 515 12 75 62 102 187 60 270 -43 84 -110 119
-316 166 -153 35 -221 66 -242 110 -19 40 -12 72 24 116 42 49 103 72 198 72
118 1 188 -34 256 -126 31 -42 29 -43 58 33 24 62 25 60 -64 89 -53 18 -82 23
-200 35 -16 2 -59 0 -95 -4z"/>
<path d="M4020 1775 c-23 -28 -131 -75 -172 -75 -42 0 -49 -10 -16 -25 12 -6
31 -23 42 -38 20 -27 21 -41 21 -311 0 -255 -2 -285 -18 -309 -10 -16 -29 -33
-43 -39 -13 -6 -24 -14 -24 -18 0 -5 222 -5 330 0 3 0 -11 8 -30 18 -64 31
-64 37 -70 446 -4 330 -7 367 -20 351z"/>
<path d="M5393 1776 c-100 -32 -198 -118 -246 -212 -118 -235 5 -516 258 -589
89 -26 212 -17 289 21 104 51 203 163 221 249 5 22 -2 15 -26 -28 -92 -165
-279 -241 -427 -172 -122 57 -232 228 -232 362 l0 43 316 0 317 0 -6 51 c-9
71 -42 135 -102 194 -73 74 -111 89 -225 92 -59 2 -111 -3 -137 -11z m179 -53
c28 -15 66 -47 84 -72 31 -39 64 -122 64 -158 0 -10 -49 -13 -245 -13 l-245 0
0 23 c0 80 63 192 127 226 59 31 152 28 215 -6z"/>
<path d="M2218 547 c-38 -9 -47 -20 -28 -32 6 -3 10 -33 10 -66 l0 -60 -28 21
c-17 13 -51 23 -83 27 -49 4 -58 2 -95 -25 -49 -36 -74 -85 -74 -147 0 -136
149 -213 250 -128 l30 25 10 -26 c8 -21 16 -26 45 -26 34 0 48 14 23 22 -10 4
-14 59 -18 214 l-5 210 -37 -9z m-70 -143 c34 -24 52 -68 52 -128 0 -65 -9
-92 -43 -128 -47 -51 -124 -31 -153 38 -28 68 -10 187 34 220 23 18 83 17 110
-2z"/>
<path d="M3495 511 c-150 -37 -221 -197 -138 -314 111 -159 382 -114 423 70
34 148 -124 283 -285 244z m136 -34 c89 -60 92 -266 4 -335 -33 -26 -111 -30
-154 -7 -70 36 -99 192 -52 283 41 79 132 106 202 59z"/>
<path d="M6475 511 c-103 -27 -175 -114 -175 -212 0 -14 12 -50 28 -80 38 -76
99 -112 196 -117 63 -3 77 0 126 25 60 32 106 93 116 154 13 78 -38 169 -117
209 -43 22 -130 33 -174 21z m133 -31 c46 -28 72 -89 72 -171 0 -123 -50 -189
-145 -189 -95 0 -145 66 -145 189 1 119 55 191 145 191 23 0 54 -9 73 -20z"/>
<path d="M6995 511 c-132 -32 -207 -164 -160 -279 22 -51 52 -81 110 -108 93
-44 203 -28 273 39 40 38 52 59 63 106 33 146 -126 281 -286 242z m124 -29
c97 -49 109 -261 20 -337 -36 -30 -112 -34 -160 -9 -67 34 -96 192 -53 280 37
76 120 104 193 66z"/>
<path d="M446 502 c-2 -4 -8 -23 -14 -44 l-10 -36 44 31 c31 22 55 30 86 31
l43 1 3 -169 c2 -147 0 -171 -14 -187 -17 -18 -15 -19 56 -19 62 0 71 2 57 13
-15 10 -17 34 -18 167 -2 226 -7 204 48 196 26 -3 56 -13 67 -21 12 -8 31 -22
43 -31 l21 -15 -12 43 -13 43 -191 2 c-106 1 -193 -1 -196 -5z"/>
<path d="M2547 479 c12 -24 14 -61 12 -185 -4 -140 -6 -157 -23 -170 -18 -13
-12 -14 54 -14 70 0 72 1 57 18 -14 16 -17 44 -17 188 0 119 4 174 12 182 9 9
-2 12 -49 12 l-61 0 15 -31z"/>
<path d="M5046 485 c13 -20 15 -52 12 -185 -3 -146 -5 -163 -22 -176 -18 -13
-12 -14 54 -14 70 0 72 1 57 18 -14 16 -17 44 -17 181 0 90 4 171 10 181 9 18
6 19 -50 19 l-59 -1 15 -23z"/>
<path d="M5830 490 c6 -10 10 -92 10 -181 0 -137 -3 -165 -17 -181 -15 -17
-13 -18 50 -18 l66 0 -15 28 c-8 16 -14 56 -14 100 l0 72 120 0 120 0 0 -72
c0 -44 -6 -84 -14 -101 l-15 -27 65 0 65 0 -15 22 c-13 18 -16 53 -16 175 0
83 4 163 10 177 9 26 9 26 -45 26 -54 0 -54 0 -45 -26 6 -14 10 -54 10 -90 l0
-64 -120 0 -120 0 0 63 c0 34 6 74 14 89 l14 27 -59 0 c-54 -1 -58 -2 -49 -19z"/>
<path d="M7356 485 c13 -19 15 -53 12 -184 -3 -146 -5 -161 -23 -175 -18 -14
-8 -15 115 -16 164 0 202 10 256 64 98 97 72 246 -53 307 -43 21 -63 24 -185
25 l-137 2 15 -23z m235 -5 c19 -5 48 -24 65 -41 27 -28 29 -37 32 -112 5
-134 -37 -188 -153 -195 -97 -6 -95 -10 -95 189 l0 169 58 0 c31 0 73 -5 93
-10z"/>
<path d="M7844 491 c24 -27 23 -336 -1 -363 -15 -17 -13 -18 50 -18 60 0 88
11 55 22 -7 3 -13 38 -16 92 l-5 88 72 -4 c87 -5 100 -16 140 -118 l28 -75 52
-3 51 -3 -25 36 c-13 20 -27 46 -31 58 -12 41 -47 79 -86 97 l-39 17 42 7 c43
7 99 52 99 80 0 33 -21 66 -52 83 -27 14 -62 17 -191 19 -149 2 -157 1 -143
-15z m277 -28 c31 -30 28 -81 -6 -110 -22 -20 -38 -23 -106 -23 l-79 0 0 73
c0 41 3 77 8 81 4 4 42 6 84 4 63 -2 82 -7 99 -25z"/>
<path d="M8314 491 c13 -15 16 -45 16 -179 0 -149 -2 -164 -20 -182 l-20 -20
77 0 77 0 -22 20 c-21 20 -22 29 -22 185 0 98 4 166 10 170 24 15 6 23 -51 24
-58 0 -60 -1 -45 -18z"/>
<path d="M8493 491 c8 -10 12 -68 12 -182 0 -156 -1 -169 -20 -183 -18 -14
-14 -15 59 -16 76 0 78 0 57 17 -20 16 -22 26 -19 93 3 73 4 75 27 72 42 -6
178 19 210 39 38 23 54 60 41 93 -22 59 -121 89 -284 84 -80 -2 -93 -5 -83
-17z m255 -28 c35 -26 41 -79 13 -110 -25 -26 -79 -43 -138 -43 l-43 0 0 91 0
92 71 -5 c49 -4 79 -12 97 -25z"/>
<path d="M9126 485 c13 -19 15 -53 12 -185 -3 -146 -5 -163 -22 -176 -18 -13
-12 -14 54 -14 70 0 72 1 57 18 -14 16 -17 44 -17 181 0 89 4 171 10 181 9 16
5 18 -50 18 l-59 0 15 -23z"/>
<path d="M2792 470 c-13 -17 -38 -40 -55 -51 -27 -16 -29 -19 -11 -19 28 0 31
-14 33 -150 1 -61 5 -118 8 -126 3 -9 20 -14 52 -14 43 1 45 2 26 16 -18 13
-20 29 -23 144 l-4 130 31 0 c17 0 31 5 31 10 0 6 -13 10 -29 10 -28 0 -30 3
-33 41 l-3 41 -23 -32z"/>
<path d="M5292 470 c-13 -17 -37 -40 -54 -50 -30 -18 -30 -18 -7 -22 24 -3 24
-4 27 -138 2 -92 6 -137 15 -142 7 -4 30 -8 51 -8 l39 0 -19 21 c-16 18 -20
40 -22 145 l-4 124 31 0 c17 0 31 5 31 10 0 6 -13 10 -29 10 -28 0 -30 3 -33
41 l-3 41 -23 -32z"/>
<path d="M9365 480 c-4 -12 -25 -34 -47 -51 -34 -24 -37 -29 -20 -29 21 0 22
-4 23 -117 1 -163 3 -167 64 -171 47 -2 49 -1 30 13 -18 14 -20 30 -23 145
l-4 130 31 0 c17 0 31 5 31 10 0 6 -13 10 -30 10 -28 0 -30 3 -30 34 0 40 -16
56 -25 26z"/>
<path d="M1034 421 c-18 -11 -39 -30 -48 -42 -16 -23 -16 -23 -16 15 0 37 0
38 -32 31 -44 -10 -52 -15 -39 -28 7 -7 11 -60 11 -139 0 -110 -2 -128 -17
-137 -14 -8 -1 -10 51 -11 63 0 68 1 50 14 -17 13 -19 27 -18 117 0 98 1 103
28 125 19 17 34 22 50 18 18 -4 25 -1 30 18 12 45 0 50 -50 19z"/>
<path d="M1245 432 c-128 -42 -167 -193 -73 -278 61 -57 133 -68 204 -34 46
23 70 52 79 96 6 28 5 27 -14 -6 -32 -58 -65 -82 -118 -87 -39 -4 -53 -1 -77
18 -35 28 -56 75 -56 128 l0 40 133 3 c124 3 132 4 129 22 -13 71 -125 124
-207 98z m115 -42 c38 -53 26 -65 -68 -68 -93 -3 -104 5 -78 56 18 36 28 40
83 41 35 1 45 -4 63 -29z"/>
<path d="M1673 433 c-13 -2 -36 -21 -53 -41 l-30 -37 0 39 c0 35 -2 38 -22 32
-13 -3 -31 -6 -42 -6 -16 0 -17 -2 -5 -17 10 -12 14 -50 14 -140 0 -112 -2
-126 -19 -139 -18 -13 -13 -14 50 -14 59 1 67 2 52 14 -15 11 -18 29 -18 107
1 147 32 197 115 187 49 -6 69 -46 73 -152 3 -71 1 -102 -11 -125 l-15 -31 54
0 c51 0 54 1 44 19 -5 11 -10 64 -10 119 0 87 -3 103 -23 133 -35 53 -78 67
-154 52z"/>
<path d="M4070 338 c-65 -158 -57 -153 -98 -73 -50 99 -63 140 -49 154 8 8 -6
11 -53 11 -60 0 -62 -1 -47 -18 9 -10 49 -85 88 -166 39 -82 74 -144 79 -140
5 5 30 62 57 127 l50 119 52 -119 c29 -65 56 -122 60 -126 4 -4 36 52 70 125
34 73 74 148 87 166 l25 32 -52 0 c-50 0 -51 -1 -36 -18 23 -26 22 -33 -23
-130 l-41 -86 -54 119 c-30 66 -55 120 -55 122 0 2 -4 3 -9 3 -5 0 -28 -46
-51 -102z"/>
<path d="M4582 429 c-20 -6 -40 -22 -52 -42 l-20 -32 0 39 c0 35 -2 38 -22 32
-13 -3 -31 -6 -41 -6 -14 0 -16 -4 -7 -19 5 -11 10 -76 10 -145 0 -108 -2
-126 -17 -135 -14 -8 -2 -10 47 -11 50 0 61 3 52 12 -15 15 -16 178 -2 230 13
45 43 68 87 68 67 0 99 -72 90 -203 -3 -43 -11 -84 -17 -92 -11 -13 -4 -15 46
-15 45 0 55 3 46 12 -8 8 -12 49 -12 118 0 86 -3 111 -20 137 -34 56 -91 74
-168 52z"/>
<path d="M77 294 c-4 -4 -7 -18 -7 -31 0 -24 1 -25 68 -17 64 6 85 17 79 39
-4 12 -129 19 -140 9z"/>
<path d="M9677 293 c-4 -3 -7 -17 -7 -31 0 -24 1 -24 68 -17 64 7 82 16 82 43
0 13 -130 18 -143 5z"/>
<path d="M2964 156 c-10 -26 1 -51 22 -54 27 -4 47 21 39 48 -7 24 -53 28 -61
6z"/>
<path d="M5464 155 c-14 -37 26 -69 53 -42 22 22 8 57 -23 57 -14 0 -27 -7
-30 -15z"/>
</g>
</svg>
